# xmcd
#
# Track frame offsets: 
#        150
#        14906
#        28985
#        42935
#        56072
#        68912
#        84062
#        96298
#        110923
#        124764
#        137482
#        152130
#        165780
#        175676
#        188696
#        202655
#
# Disc length: 2887 seconds
#
# Revision: 0
# Processed by: cddbd v1.5.2PL0 Copyright (c) Steve Scherf et al.
# Submitted via: ExactAudioCopy v0.95b4
#
DISCID=d00b4510
DTITLE=The Excellos - The Excellos
DYEAR=2009
DGENRE=R&B
TTITLE0=I Got Love If You Want It
TTITLE1=Catfish
TTITLE2=You Don't Care
TTITLE3=Jekyll and Hyde
TTITLE4=Bad Boy Blues
TTITLE5=Draw The Line
TTITLE6=Black Betty
TTITLE7=Cold Coffee
TTITLE8=Jump
TTITLE9=Sonny Rising
TTITLE10=Kasbah
TTITLE11=Lucky Charm
TTITLE12=Suzy Q
TTITLE13=Scratch and Sniff
TTITLE14=Shake Your Hips
TTITLE15=Down In The Bottom (hidden track)
EXTD=
EXTT0=
EXTT1=
EXTT2=
EXTT3=
EXTT4=
EXTT5=
EXTT6=
EXTT7=
EXTT8=
EXTT9=
EXTT10=
EXTT11=
EXTT12=
EXTT13=
EXTT14=
EXTT15=
PLAYORDER=
